<svg width="268" height="39" viewBox="0 0 268 39" fill="none" xmlns="http://www.w3.org/2000/svg">
<path d="M36.768 12.272H28.512V8.528H25.44V30.128H28.8V38H8.64V30.128H12V8.528H8.928V12.272H0.672V0.655997H36.768V12.272ZM58.8131 10.64C59.4531 10.64 60.0611 10.704 60.6371 10.832C61.2131 10.96 61.6931 11.12 62.0771 11.312V20.48C60.7651 19.936 59.3571 19.664 57.8531 19.664C55.8371 19.664 54.2851 20.192 53.1971 21.248C52.1091 22.304 51.5651 23.872 51.5651 25.952V30.128H55.8851V38H38.4131V30.128H40.5251V19.184H38.4131V11.312H51.5651V14.816C52.4611 13.472 53.4851 12.448 54.6371 11.744C55.7891 11.008 57.1811 10.64 58.8131 10.64ZM91.6136 30.128V38H78.9416V34.736C78.2376 35.76 77.2456 36.672 75.9656 37.472C74.7176 38.272 73.1816 38.672 71.3576 38.672C68.9576 38.672 67.0696 38.032 65.6936 36.752C64.3176 35.472 63.6296 33.664 63.6296 31.328C63.6296 25.28 68.7656 22.176 79.0376 22.016C78.9416 20.928 78.5256 20.192 77.7896 19.808C77.0536 19.392 75.8056 19.184 74.0456 19.184C72.6056 19.184 71.0536 19.344 69.3896 19.664C67.7576 19.952 66.2536 20.352 64.8776 20.864V12.032C66.5736 11.616 68.4136 11.28 70.3976 11.024C72.3816 10.768 74.3176 10.64 76.2056 10.64C80.9736 10.64 84.3816 11.504 86.4296 13.232C88.4776 14.96 89.5016 17.632 89.5016 21.248V30.128H91.6136ZM78.9416 26.768C77.5016 26.768 76.3816 26.96 75.5816 27.344C74.8136 27.728 74.4296 28.368 74.4296 29.264C74.4296 29.808 74.5896 30.256 74.9096 30.608C75.2616 30.928 75.7416 31.088 76.3496 31.088C77.1816 31.088 77.8216 30.736 78.2696 30.032C78.7176 29.328 78.9416 28.336 78.9416 27.056V26.768ZM98.919 38L92.871 19.184H90.855V11.312H105.687V19.184H103.671L106.215 28.688H106.695L109.239 19.184H107.223V11.312H121.143V19.184H119.127L113.223 38H98.919ZM136.809 38.672C132.265 38.672 128.713 37.488 126.153 35.12C123.593 32.72 122.313 29.232 122.313 24.656C122.313 20.08 123.593 16.608 126.153 14.24C128.713 11.84 132.265 10.64 136.809 10.64C141.321 10.64 144.569 11.824 146.553 14.192C148.569 16.528 149.577 19.44 149.577 22.928V26.384H134.025V26.672C134.025 27.856 134.377 28.736 135.081 29.312C135.785 29.856 136.953 30.128 138.585 30.128C140.537 30.128 142.393 29.984 144.153 29.696C145.913 29.408 147.449 29.04 148.761 28.592V36.272C147.641 36.88 145.993 37.44 143.817 37.952C141.673 38.432 139.337 38.672 136.809 38.672ZM139.593 21.104V20.528C139.593 19.44 139.353 18.656 138.873 18.176C138.425 17.696 137.737 17.456 136.809 17.456C135.881 17.456 135.177 17.712 134.697 18.224C134.249 18.704 134.025 19.472 134.025 20.528V21.104H139.593ZM151.005 38.048V30.128H153.117V8.528H151.005V0.655997H164.157V30.128H166.269V38.048H151.005Z" fill="#464645"/>
<path d="M182.273 38V30.128H184.673V8.528H182.273V0.655997H200.513V8.528H198.113V30.128H200.513V38H182.273ZM234.205 30.128V38H219.037V30.128H221.053V22.256C221.053 21.2 220.829 20.432 220.381 19.952C219.933 19.44 219.261 19.184 218.365 19.184C216.445 19.184 215.485 20.208 215.485 22.256V30.128H217.501V38H202.333V30.128H204.445V19.184H202.333V11.312H215.485V15.056C217.789 12.112 220.669 10.64 224.125 10.64C226.781 10.64 228.765 11.472 230.077 13.136C231.421 14.8 232.093 17.088 232.093 20V30.128H234.205ZM267.627 30.128V38H252.459V30.128H254.475V22.256C254.475 21.2 254.251 20.432 253.803 19.952C253.355 19.44 252.683 19.184 251.787 19.184C249.867 19.184 248.907 20.208 248.907 22.256V30.128H250.923V38H235.755V30.128H237.867V19.184H235.755V11.312H248.907V15.056C251.211 12.112 254.091 10.64 257.547 10.64C260.203 10.64 262.187 11.472 263.499 13.136C264.843 14.8 265.515 17.088 265.515 20V30.128H267.627Z" fill="#1D8FA8"/>
</svg>
