<svg width="512" height="512" viewBox="0 0 512 512" fill="none" xmlns="http://www.w3.org/2000/svg">
<circle cx="256" cy="256" r="256" fill="#362F2E"/>
<path d="M246.528 221.4H248.192V272.6C248.192 285.997 245.547 295.853 240.256 302.168C234.965 308.397 228.053 311.512 219.52 311.512C214.144 311.512 209.579 311.043 205.824 310.104C202.069 309.08 198.528 307.245 195.2 304.6C188.373 299.309 184.96 288.643 184.96 272.6V221.4H195.584V272.472C195.584 288.003 197.931 298.371 202.624 303.576C205.013 306.136 207.488 307.885 210.048 308.824C212.693 309.763 215.851 310.232 219.52 310.232C227.712 310.232 234.24 307.245 239.104 301.272C244.053 295.213 246.528 285.613 246.528 272.472V221.4Z" fill="white"/>
<path d="M307.072 256.512C291.115 256.512 279.296 251.989 271.616 242.944C268.885 239.701 266.667 235.392 264.96 230.016C263.253 224.64 262.4 218.112 262.4 210.432C262.4 202.752 263.637 195.883 266.112 189.824C268.672 183.68 272.128 178.944 276.48 175.616C284.928 169.387 295.125 166.272 307.072 166.272C310.485 166.272 313.813 166.571 317.056 167.168C320.299 167.68 322.731 168.235 324.352 168.832L326.656 169.728L326.272 171.008C320.469 168.704 314.069 167.552 307.072 167.552C298.027 167.552 290.475 170.496 284.416 176.384C279.808 180.736 276.565 187.136 274.688 195.584C273.579 200.363 273.024 206.208 273.024 213.12C273.024 220.032 274.005 226.432 275.968 232.32C277.931 238.123 280.149 242.432 282.624 245.248C285.184 248.064 288.256 250.325 291.84 252.032C295.424 253.653 298.283 254.592 300.416 254.848C302.549 255.104 305.109 255.232 308.096 255.232C311.168 255.232 314.624 254.933 318.464 254.336C322.304 253.739 325.205 253.184 327.168 252.672L330.112 251.776L330.496 253.056C324.011 255.36 316.203 256.512 307.072 256.512Z" fill="white"/>
</svg>
