<svg width="197" height="36" viewBox="0 0 197 36" fill="none" xmlns="http://www.w3.org/2000/svg">
<path d="M37.2939 13.5C37.2939 20.9558 31.2498 27 23.7939 27C16.3381 27 10.2939 20.9558 10.2939 13.5C10.2939 6.04416 -20.2061 0 23.7939 0C67.7939 0 37.2939 6.04416 37.2939 13.5Z" fill="#EA794C"/>
<path d="M84.0438 9.152V12.44H77.1798V15.992H82.3158V19.184H77.1798V26H73.0758V9.152H84.0438ZM92.2968 26.192C90.9848 26.192 89.8008 25.912 88.7448 25.352C87.7048 24.792 86.8808 23.992 86.2728 22.952C85.6808 21.912 85.3848 20.696 85.3848 19.304C85.3848 17.928 85.6888 16.72 86.2968 15.68C86.9048 14.624 87.7368 13.816 88.7928 13.256C89.8488 12.696 91.0328 12.416 92.3448 12.416C93.6568 12.416 94.8408 12.696 95.8968 13.256C96.9528 13.816 97.7848 14.624 98.3928 15.68C99.0008 16.72 99.3048 17.928 99.3048 19.304C99.3048 20.68 98.9928 21.896 98.3688 22.952C97.7608 23.992 96.9208 24.792 95.8488 25.352C94.7928 25.912 93.6088 26.192 92.2968 26.192ZM92.2968 22.64C93.0808 22.64 93.7448 22.352 94.2888 21.776C94.8488 21.2 95.1288 20.376 95.1288 19.304C95.1288 18.232 94.8568 17.408 94.3128 16.832C93.7848 16.256 93.1288 15.968 92.3448 15.968C91.5448 15.968 90.8808 16.256 90.3528 16.832C89.8248 17.392 89.5608 18.216 89.5608 19.304C89.5608 20.376 89.8168 21.2 90.3288 21.776C90.8568 22.352 91.5128 22.64 92.2968 22.64ZM107.578 26.192C106.266 26.192 105.082 25.912 104.026 25.352C102.986 24.792 102.162 23.992 101.554 22.952C100.962 21.912 100.666 20.696 100.666 19.304C100.666 17.928 100.97 16.72 101.578 15.68C102.186 14.624 103.018 13.816 104.074 13.256C105.13 12.696 106.314 12.416 107.626 12.416C108.938 12.416 110.122 12.696 111.178 13.256C112.234 13.816 113.066 14.624 113.674 15.68C114.282 16.72 114.586 17.928 114.586 19.304C114.586 20.68 114.274 21.896 113.65 22.952C113.042 23.992 112.202 24.792 111.13 25.352C110.074 25.912 108.89 26.192 107.578 26.192ZM107.578 22.64C108.362 22.64 109.026 22.352 109.57 21.776C110.13 21.2 110.41 20.376 110.41 19.304C110.41 18.232 110.138 17.408 109.594 16.832C109.066 16.256 108.41 15.968 107.626 15.968C106.826 15.968 106.162 16.256 105.634 16.832C105.106 17.392 104.842 18.216 104.842 19.304C104.842 20.376 105.098 21.2 105.61 21.776C106.138 22.352 106.794 22.64 107.578 22.64ZM115.947 19.28C115.947 17.904 116.203 16.696 116.715 15.656C117.243 14.616 117.955 13.816 118.851 13.256C119.747 12.696 120.747 12.416 121.851 12.416C122.731 12.416 123.531 12.6 124.251 12.968C124.987 13.336 125.563 13.832 125.979 14.456V8.24H130.083V26H125.979V24.08C125.595 24.72 125.043 25.232 124.323 25.616C123.619 26 122.795 26.192 121.851 26.192C120.747 26.192 119.747 25.912 118.851 25.352C117.955 24.776 117.243 23.968 116.715 22.928C116.203 21.872 115.947 20.656 115.947 19.28ZM125.979 19.304C125.979 18.28 125.691 17.472 125.115 16.88C124.555 16.288 123.867 15.992 123.051 15.992C122.235 15.992 121.539 16.288 120.963 16.88C120.403 17.456 120.123 18.256 120.123 19.28C120.123 20.304 120.403 21.12 120.963 21.728C121.539 22.32 122.235 22.616 123.051 22.616C123.867 22.616 124.555 22.32 125.115 21.728C125.691 21.136 125.979 20.328 125.979 19.304ZM152.73 9.152V26H148.626V19.064H142.242V26H138.138V9.152H142.242V15.752H148.626V9.152H152.73ZM168.917 12.608V26H164.813V24.176C164.397 24.768 163.829 25.248 163.109 25.616C162.405 25.968 161.621 26.144 160.757 26.144C159.733 26.144 158.829 25.92 158.045 25.472C157.261 25.008 156.653 24.344 156.221 23.48C155.789 22.616 155.573 21.6 155.573 20.432V12.608H159.653V19.88C159.653 20.776 159.885 21.472 160.349 21.968C160.813 22.464 161.437 22.712 162.221 22.712C163.021 22.712 163.653 22.464 164.117 21.968C164.581 21.472 164.813 20.776 164.813 19.88V12.608H168.917ZM180.025 12.464C181.593 12.464 182.841 12.976 183.769 14C184.713 15.008 185.185 16.4 185.185 18.176V26H181.105V18.728C181.105 17.832 180.873 17.136 180.409 16.64C179.945 16.144 179.321 15.896 178.537 15.896C177.753 15.896 177.129 16.144 176.665 16.64C176.201 17.136 175.969 17.832 175.969 18.728V26H171.865V12.608H175.969V14.384C176.385 13.792 176.945 13.328 177.649 12.992C178.353 12.64 179.145 12.464 180.025 12.464ZM195.501 22.52V26H193.413C191.925 26 190.765 25.64 189.933 24.92C189.101 24.184 188.685 22.992 188.685 21.344V16.016H187.053V12.608H188.685V9.344H192.789V12.608H195.477V16.016H192.789V21.392C192.789 21.792 192.885 22.08 193.077 22.256C193.269 22.432 193.589 22.52 194.037 22.52H195.501Z" fill="#333333"/>
</svg>
