<svg width="26" height="21" viewBox="0 0 26 21" fill="none" xmlns="http://www.w3.org/2000/svg">
<path d="M9.33789 10.5C10.3268 10.5 11.2935 10.2068 12.1157 9.65735C12.938 9.10794 13.5789 8.32705 13.9573 7.41342C14.3357 6.49979 14.4347 5.49446 14.2418 4.52455C14.0489 3.55465 13.5727 2.66373 12.8734 1.96447C12.1742 1.26521 11.2832 0.789002 10.3133 0.596076C9.34344 0.40315 8.3381 0.502166 7.42447 0.880605C6.51084 1.25904 5.72995 1.89991 5.18054 2.72215C4.63114 3.5444 4.33789 4.5111 4.33789 5.5C4.33789 6.82609 4.86467 8.09785 5.80236 9.03554C6.74004 9.97322 8.01181 10.5 9.33789 10.5ZM13.0879 13C13.0907 12.5825 13.1996 12.1725 13.4043 11.8086C13.2168 11.7891 13.0332 11.75 12.8379 11.75H12.1855C11.2927 12.1618 10.3211 12.375 9.33789 12.375C8.35465 12.375 7.38311 12.1618 6.49023 11.75H5.83789C4.4456 11.7503 3.11042 12.3035 2.12592 13.288C1.14142 14.2725 0.588201 15.6077 0.587891 17L0.587891 18.625C0.587891 19.1223 0.785435 19.5992 1.13707 19.9508C1.4887 20.3025 1.96561 20.5 2.46289 20.5H13.4355C13.2109 20.1215 13.0909 19.6901 13.0879 19.25V13ZM24.3379 11.75H23.0879V8.625C23.0879 7.7962 22.7586 7.00134 22.1726 6.41529C21.5865 5.82924 20.7917 5.5 19.9629 5.5C19.1341 5.5 18.3392 5.82924 17.7532 6.41529C17.1671 7.00134 16.8379 7.7962 16.8379 8.625V11.75H15.5879C15.2564 11.75 14.9384 11.8817 14.704 12.1161C14.4696 12.3505 14.3379 12.6685 14.3379 13V19.25C14.3379 19.5815 14.4696 19.8995 14.704 20.1339C14.9384 20.3683 15.2564 20.5 15.5879 20.5H24.3379C24.6694 20.5 24.9874 20.3683 25.2218 20.1339C25.4562 19.8995 25.5879 19.5815 25.5879 19.25V13C25.5879 12.6685 25.4562 12.3505 25.2218 12.1161C24.9874 11.8817 24.6694 11.75 24.3379 11.75ZM19.9629 17.375C19.7157 17.375 19.474 17.3017 19.2684 17.1643C19.0629 17.027 18.9027 16.8318 18.808 16.6034C18.7134 16.3749 18.6887 16.1236 18.7369 15.8811C18.7851 15.6387 18.9042 15.4159 19.079 15.2411C19.2538 15.0663 19.4766 14.9473 19.719 14.899C19.9615 14.8508 20.2128 14.8755 20.4412 14.9702C20.6697 15.0648 20.8649 15.225 21.0022 15.4305C21.1396 15.6361 21.2129 15.8778 21.2129 16.125C21.2129 16.4565 21.0812 16.7745 20.8468 17.0089C20.6124 17.2433 20.2944 17.375 19.9629 17.375ZM21.2129 11.75H18.7129V8.625C18.7129 8.29348 18.8446 7.97554 19.079 7.74112C19.3134 7.5067 19.6314 7.375 19.9629 7.375C20.2944 7.375 20.6124 7.5067 20.8468 7.74112C21.0812 7.97554 21.2129 8.29348 21.2129 8.625V11.75Z" fill="#333333"/>
</svg>
