<svg width="128" height="128" viewBox="0 0 128 128" fill="none" xmlns="http://www.w3.org/2000/svg">
<path d="M34.8876 16.0894L34.9623 16.5H35.3796H122.664C125.701 16.5 128.086 19.7131 127.375 23.2307L116.87 75.2307L117.36 75.3298L116.87 75.2308C116.357 77.7691 114.373 79.5 112.159 79.5H47.016H46.4169L46.5241 80.0894L47.9785 88.0894L48.0532 88.5H48.4705H108.119C111.155 88.5 113.54 91.7131 112.829 95.2307L111.603 101.3L111.531 101.661L111.854 101.838C115.834 104.011 118.611 108.625 118.611 114C118.611 121.513 113.21 127.5 106.667 127.5C100.124 127.5 94.7222 121.513 94.7222 114C94.7222 110.203 96.1104 106.783 98.331 104.336L99.0895 103.5H97.9607H51.3725H50.2436L51.0022 104.336C53.223 106.783 54.6111 110.203 54.6111 114C54.6111 121.513 49.2097 127.5 42.6667 127.5C36.1237 127.5 30.7222 121.513 30.7222 114C30.7222 108.964 33.1618 104.597 36.7452 102.279L37.0252 102.097L36.9655 101.769L21.3548 15.9106L21.2802 15.5H20.8629H5.33333C2.71766 15.5 0.5 13.0946 0.5 10V6C0.5 2.9054 2.71766 0.5 5.33333 0.5H28.1176C30.3696 0.5 32.3789 2.29092 32.8507 4.88692L33.3427 4.7975L32.8507 4.88695L34.8876 16.0894Z" stroke="#201817"/>
</svg>
