<svg width="319" height="36" viewBox="0 0 319 36" fill="none" xmlns="http://www.w3.org/2000/svg">
<path d="M28.952 22.328V3.56L24.608 2.432V1.64H34.928V2.432L30.848 3.56V22.328C30.848 25.128 30.336 27.512 29.312 29.48C28.288 31.432 26.792 32.92 24.824 33.944C22.872 34.968 20.504 35.48 17.72 35.48C14.792 35.48 12.312 34.96 10.28 33.92C8.264 32.864 6.728 31.296 5.672 29.216C4.616 27.136 4.088 24.552 4.088 21.464V3.536L0.00800008 2.432V1.64H12.608V2.432L8.552 3.536V21.848C8.552 24.248 8.928 26.248 9.68 27.848C10.432 29.448 11.568 30.64 13.088 31.424C14.608 32.208 16.504 32.6 18.776 32.6C20.968 32.6 22.816 32.216 24.32 31.448C25.84 30.68 26.992 29.536 27.776 28.016C28.56 26.48 28.952 24.584 28.952 22.328ZM41.9604 33.08V3.92L37.5684 2.432V1.64H46.3524L66.4644 28.664L65.2644 32.384V3.56L60.7764 2.432V1.64H71.2404V2.432L67.1604 3.56V35.48H66.2004L43.1604 4.64L43.8804 3.752V33.08L48.3444 34.208V35H37.9044V34.208L41.9604 33.08ZM76.9168 29.168C77.8448 29.168 78.6048 29.472 79.1968 30.08C79.7888 30.672 80.0848 31.408 80.0848 32.288C80.0848 33.152 79.7888 33.888 79.1968 34.496C78.6048 35.104 77.8448 35.408 76.9168 35.408C76.0048 35.408 75.2448 35.104 74.6367 34.496C74.0448 33.888 73.7488 33.152 73.7488 32.288C73.7488 31.408 74.0448 30.672 74.6367 30.08C75.2448 29.472 76.0048 29.168 76.9168 29.168ZM101.487 34.04C102.719 34.04 103.935 33.856 105.135 33.488C106.351 33.12 107.567 32.52 108.783 31.688L107.775 32.696L111.591 26H112.503L111.111 33.896C109.671 34.44 108.151 34.84 106.551 35.096C104.967 35.352 103.263 35.48 101.439 35.48C98.7831 35.48 96.3271 35.112 94.0711 34.376C91.8311 33.624 89.8791 32.52 88.2151 31.064C86.5511 29.608 85.2551 27.808 84.3271 25.664C83.3991 23.52 82.9351 21.056 82.9351 18.272C82.9351 14.832 83.6951 11.832 85.2151 9.272C86.7351 6.712 88.8711 4.72 91.6231 3.296C94.3911 1.872 97.6391 1.16 101.367 1.16C102.535 1.16 103.679 1.232 104.799 1.376C105.935 1.52 107.175 1.752 108.519 2.072L107.247 2.336L110.031 0.295998H110.391L112.215 11.696L111.399 11.84L107.079 4.184L108.039 5.168C106.631 4.304 105.311 3.688 104.079 3.32C102.863 2.936 101.583 2.744 100.239 2.744C98.3831 2.744 96.6871 3.032 95.1511 3.608C93.6151 4.168 92.2871 5.04 91.1671 6.224C90.0471 7.392 89.1751 8.896 88.5511 10.736C87.9431 12.56 87.6391 14.744 87.6391 17.288C87.6391 20.12 87.9991 22.584 88.7191 24.68C89.4391 26.776 90.4311 28.52 91.6951 29.912C92.9751 31.288 94.4471 32.32 96.1111 33.008C97.7911 33.696 99.5831 34.04 101.487 34.04ZM133.081 1.16C135.497 1.16 137.713 1.576 139.729 2.408C141.745 3.24 143.489 4.424 144.961 5.96C146.449 7.48 147.601 9.28 148.417 11.36C149.233 13.44 149.641 15.736 149.641 18.248C149.641 20.776 149.233 23.088 148.417 25.184C147.617 27.28 146.473 29.104 144.985 30.656C143.513 32.192 141.769 33.384 139.753 34.232C137.753 35.064 135.553 35.48 133.153 35.48C130.753 35.48 128.537 35.064 126.505 34.232C124.489 33.4 122.737 32.224 121.249 30.704C119.761 29.168 118.609 27.36 117.793 25.28C116.977 23.184 116.569 20.872 116.569 18.344C116.569 15.832 116.969 13.528 117.769 11.432C118.585 9.336 119.729 7.52 121.201 5.984C122.689 4.448 124.441 3.264 126.457 2.432C128.473 1.584 130.681 1.16 133.081 1.16ZM133.321 33.848C135.721 33.848 137.793 33.248 139.536 32.048C141.281 30.848 142.625 29.144 143.569 26.936C144.513 24.712 144.985 22.088 144.985 19.064C144.985 15.608 144.465 12.672 143.425 10.256C142.401 7.824 140.977 5.968 139.153 4.688C137.345 3.408 135.265 2.768 132.913 2.768C130.497 2.768 128.417 3.376 126.673 4.592C124.929 5.792 123.585 7.504 122.641 9.728C121.697 11.936 121.225 14.552 121.225 17.576C121.225 21.032 121.737 23.976 122.761 26.408C123.801 28.824 125.225 30.672 127.033 31.952C128.857 33.216 130.953 33.848 133.321 33.848ZM193.899 33.08L197.955 34.208V35H185.331V34.208L189.387 33.08L187.299 4.544L187.635 4.592L174.387 35.48H173.499L159.627 5.168L159.963 5.096L158.187 33.08L162.507 34.208V35H152.259V34.208L156.315 33.08L158.355 3.92L154.179 2.432V1.64H162.867L175.731 29.888H174.963L187.107 1.64H195.915V2.432L191.571 3.536L193.899 33.08ZM241.571 33.08L245.627 34.208V35H233.003V34.208L237.059 33.08L234.971 4.544L235.307 4.592L222.059 35.48H221.171L207.299 5.168L207.635 5.096L205.859 33.08L210.179 34.208V35H199.931V34.208L203.987 33.08L206.027 3.92L201.851 2.432V1.64H210.539L223.403 29.888H222.635L234.779 1.64H243.587V2.432L239.243 3.536L241.571 33.08ZM264.659 1.16C267.075 1.16 269.291 1.576 271.307 2.408C273.323 3.24 275.067 4.424 276.539 5.96C278.027 7.48 279.179 9.28 279.995 11.36C280.811 13.44 281.219 15.736 281.219 18.248C281.219 20.776 280.811 23.088 279.995 25.184C279.195 27.28 278.051 29.104 276.563 30.656C275.091 32.192 273.347 33.384 271.331 34.232C269.331 35.064 267.131 35.48 264.731 35.48C262.331 35.48 260.115 35.064 258.083 34.232C256.067 33.4 254.315 32.224 252.827 30.704C251.339 29.168 250.187 27.36 249.371 25.28C248.555 23.184 248.147 20.872 248.147 18.344C248.147 15.832 248.547 13.528 249.347 11.432C250.163 9.336 251.307 7.52 252.779 5.984C254.267 4.448 256.019 3.264 258.035 2.432C260.051 1.584 262.259 1.16 264.659 1.16ZM264.899 33.848C267.299 33.848 269.371 33.248 271.115 32.048C272.859 30.848 274.203 29.144 275.147 26.936C276.091 24.712 276.563 22.088 276.563 19.064C276.563 15.608 276.043 12.672 275.003 10.256C273.979 7.824 272.555 5.968 270.731 4.688C268.923 3.408 266.843 2.768 264.491 2.768C262.075 2.768 259.995 3.376 258.251 4.592C256.507 5.792 255.163 7.504 254.219 9.728C253.275 11.936 252.803 14.552 252.803 17.576C252.803 21.032 253.315 23.976 254.339 26.408C255.379 28.824 256.803 30.672 258.611 31.952C260.435 33.216 262.531 33.848 264.899 33.848ZM288.898 33.08V3.92L284.506 2.432V1.64H293.29L313.402 28.664L312.202 32.384V3.56L307.714 2.432V1.64H318.178V2.432L314.098 3.56V35.48H313.138L290.098 4.64L290.818 3.752V33.08L295.282 34.208V35H284.842V34.208L288.898 33.08Z" fill="white"/>
</svg>
