<svg width="46" height="46" viewBox="0 0 46 46" fill="none" xmlns="http://www.w3.org/2000/svg">
<path d="M43.647 2.7531L34.5064 0.643727C33.5132 0.415211 32.4937 0.933766 32.0894 1.86541L27.8707 11.7092C27.5015 12.5705 27.7476 13.5812 28.4771 14.1701L33.8033 18.5295C30.6392 25.2707 25.1109 30.8781 18.2291 34.1037L13.8697 28.7775C13.272 28.048 12.2701 27.8019 11.4088 28.1711L1.565 32.3898C0.624573 32.8029 0.106018 33.8224 0.334534 34.8156L2.44391 43.9562C2.66364 44.9054 3.50739 45.591 4.50055 45.591C27.0093 45.591 45.2818 27.3537 45.2818 4.80974C45.2818 3.82537 44.605 2.97283 43.647 2.7531Z" fill="black"/>
</svg>
