<svg width="682" height="92" viewBox="0 0 682 92" fill="none" xmlns="http://www.w3.org/2000/svg">
<path d="M62.528 1.39999H64.192V52.6C64.192 65.9973 61.5467 75.8533 56.256 82.168C50.9653 88.3973 44.0533 91.512 35.52 91.512C30.144 91.512 25.5787 91.0427 21.824 90.104C18.0693 89.08 14.528 87.2453 11.2 84.6C4.37333 79.3093 0.96 68.6427 0.96 52.6V1.39999H11.584V52.472C11.584 68.0027 13.9307 78.3707 18.624 83.576C21.0133 86.136 23.488 87.8853 26.048 88.824C28.6933 89.7627 31.8507 90.232 35.52 90.232C43.712 90.232 50.24 87.2453 55.104 81.272C60.0533 75.2133 62.528 65.6133 62.528 52.472V1.39999ZM81.234 91H79.57V1.39999H83.922L137.17 84.216V1.39999H138.834V91H129.49L81.234 16.76V91ZM154.805 91.512C153.696 91.512 152.714 91.128 151.861 90.36C151.093 89.5067 150.709 88.5253 150.709 87.416C150.709 86.2213 151.093 85.24 151.861 84.472C152.629 83.704 153.568 83.32 154.677 83.32C155.872 83.32 156.853 83.7467 157.621 84.6C158.474 85.368 158.901 86.3067 158.901 87.416C158.901 88.5253 158.474 89.5067 157.621 90.36C156.853 91.128 155.914 91.512 154.805 91.512ZM212.322 91.512C196.365 91.512 184.546 86.9893 176.866 77.944C174.135 74.7013 171.917 70.392 170.21 65.016C168.503 59.64 167.65 53.112 167.65 45.432C167.65 37.752 168.887 30.8827 171.362 24.824C173.922 18.68 177.378 13.944 181.73 10.616C190.178 4.38666 200.375 1.272 212.322 1.272C215.735 1.272 219.063 1.57066 222.306 2.168C225.549 2.68 227.981 3.23466 229.602 3.83199L231.906 4.728L231.522 6.008C225.719 3.70399 219.319 2.55199 212.322 2.55199C203.277 2.55199 195.725 5.49599 189.666 11.384C185.058 15.736 181.815 22.136 179.938 30.584C178.829 35.3627 178.274 41.208 178.274 48.12C178.274 55.032 179.255 61.432 181.218 67.32C183.181 73.1227 185.399 77.432 187.874 80.248C190.434 83.064 193.506 85.3253 197.09 87.032C200.674 88.6533 203.533 89.592 205.666 89.848C207.799 90.104 210.359 90.232 213.346 90.232C216.418 90.232 219.874 89.9333 223.714 89.336C227.554 88.7387 230.455 88.184 232.418 87.672L235.362 86.776L235.746 88.056C229.261 90.36 221.453 91.512 212.322 91.512ZM240.275 48.376C240.275 32.8453 244.03 21.0693 251.539 13.048C259.134 4.94133 268.862 0.887993 280.723 0.887993C292.584 0.887993 302.014 4.38666 309.011 11.384C316.094 18.3813 319.635 29.56 319.635 44.92C319.635 60.28 315.88 71.8853 308.371 79.736C300.862 87.5867 290.835 91.512 278.291 91.512C267.454 91.512 258.579 88.3973 251.667 82.168C248.083 78.9253 245.267 74.4453 243.219 68.728C241.256 62.9253 240.275 56.1413 240.275 48.376ZM280.339 2.168C271.72 2.168 264.638 6.008 259.091 13.688C253.63 21.368 250.899 32.632 250.899 47.48C250.899 62.328 253.502 73.1653 258.707 79.992C263.912 86.8187 270.824 90.232 279.443 90.232C288.147 90.232 295.23 86.392 300.691 78.712C306.238 70.9467 309.011 59.7253 309.011 45.048C309.011 30.2853 306.366 19.448 301.075 12.536C295.87 5.624 288.958 2.168 280.339 2.168ZM332.109 91H330.445L341.581 1.39999H345.805L372.685 84.216L399.437 1.39999H403.661L414.797 91H404.173L395.341 19.32L372.173 91H364.109L340.685 20.216L332.109 91ZM433.734 91H432.07L443.206 1.39999H447.43L474.31 84.216L501.062 1.39999H505.286L516.422 91H505.798L496.966 19.32L473.798 91H465.734L442.31 20.216L433.734 91ZM529.275 48.376C529.275 32.8453 533.03 21.0693 540.539 13.048C548.134 4.94133 557.862 0.887993 569.723 0.887993C581.584 0.887993 591.014 4.38666 598.011 11.384C605.094 18.3813 608.635 29.56 608.635 44.92C608.635 60.28 604.88 71.8853 597.371 79.736C589.862 87.5867 579.835 91.512 567.291 91.512C556.454 91.512 547.579 88.3973 540.667 82.168C537.083 78.9253 534.267 74.4453 532.219 68.728C530.256 62.9253 529.275 56.1413 529.275 48.376ZM569.339 2.168C560.72 2.168 553.638 6.008 548.091 13.688C542.63 21.368 539.899 32.632 539.899 47.48C539.899 62.328 542.502 73.1653 547.707 79.992C552.912 86.8187 559.824 90.232 568.443 90.232C577.147 90.232 584.23 86.392 589.691 78.712C595.238 70.9467 598.011 59.7253 598.011 45.048C598.011 30.2853 595.366 19.448 590.075 12.536C584.87 5.624 577.958 2.168 569.339 2.168ZM623.734 91H622.07V1.39999H626.422L679.67 84.216V1.39999H681.334V91H671.99L623.734 16.76V91Z" fill="#201817"/>
</svg>
